<?xml version="1.0" encoding="UTF-8" standalone="no"?>
<!-- Created with Inkscape (http://www.inkscape.org/) -->

<svg
   xmlns:dc="http://purl.org/dc/elements/1.1/"
   xmlns:cc="http://creativecommons.org/ns#"
   xmlns:rdf="http://www.w3.org/1999/02/22-rdf-syntax-ns#"
   xmlns:svg="http://www.w3.org/2000/svg"
   xmlns="http://www.w3.org/2000/svg"
   xmlns:sodipodi="http://sodipodi.sourceforge.net/DTD/sodipodi-0.dtd"
   xmlns:inkscape="http://www.inkscape.org/namespaces/inkscape"
   width="32"
   height="32"
   id="svg4400"
   version="1.1"
   inkscape:version="0.48.4 r9939"
   sodipodi:docname="Novo documento 20">
  <defs
     id="defs4402" />
  <sodipodi:namedview
     id="base"
     pagecolor="#ffffff"
     bordercolor="#666666"
     borderopacity="1.0"
     inkscape:pageopacity="0.0"
     inkscape:pageshadow="2"
     inkscape:zoom="44.8"
     inkscape:cx="11.921948"
     inkscape:cy="32.720857"
     inkscape:document-units="px"
     inkscape:current-layer="layer1"
     showgrid="false"
     inkscape:window-width="1301"
     inkscape:window-height="744"
     inkscape:window-x="65"
     inkscape:window-y="24"
     inkscape:window-maximized="1" />
  <metadata
     id="metadata4405">
    <rdf:RDF>
      <cc:Work
         rdf:about="">
        <dc:format>image/svg+xml</dc:format>
        <dc:type
           rdf:resource="http://purl.org/dc/dcmitype/StillImage" />
        <dc:title></dc:title>
      </cc:Work>
    </rdf:RDF>
  </metadata>
  <g
     inkscape:label="Camada 1"
     inkscape:groupmode="layer"
     id="layer1"
     transform="translate(0,-1020.3622)">
    <path
       inkscape:connector-curvature="0"
       id="path3102"
       style="fill:#3d529e;fill-opacity:1;fill-rule:nonzero;stroke:none"
       d="m 0.01408918,1052.3682 31.99999982,0 0,-32 -31.99999982,0 0,32 z" />
    <path
       inkscape:connector-curvature="0"
       id="path3104"
       style="fill:#ffffff;fill-opacity:1;fill-rule:nonzero;stroke:none"
       d="m 27.921929,1039.5238 0.63147,-4.8981 -4.85035,0 0,-3.127 c 0,-1.4183 0.39552,-2.3847 2.42901,-2.3847 l 2.59158,-10e-4 0,-4.381 c -0.44758,-0.059 -1.98571,-0.1929 -3.77856,-0.1929 -3.74016,0 -6.29888,2.2831 -6.29888,6.4751 l 0,3.6118 -4.22998,0 0,4.8981 4.22998,0 0,12.5679 5.05685,0 0,-12.5679 4.21888,0" />
  </g>
</svg>
