<?xml version="1.0" encoding="UTF-8" standalone="no"?>
<!-- Created with Inkscape (http://www.inkscape.org/) -->

<svg
   xmlns:dc="http://purl.org/dc/elements/1.1/"
   xmlns:cc="http://creativecommons.org/ns#"
   xmlns:rdf="http://www.w3.org/1999/02/22-rdf-syntax-ns#"
   xmlns:svg="http://www.w3.org/2000/svg"
   xmlns="http://www.w3.org/2000/svg"
   xmlns:xlink="http://www.w3.org/1999/xlink"
   xmlns:sodipodi="http://sodipodi.sourceforge.net/DTD/sodipodi-0.dtd"
   xmlns:inkscape="http://www.inkscape.org/namespaces/inkscape"
   width="32"
   height="32"
   id="svg3322"
   version="1.1"
   inkscape:version="0.48.4 r9939"
   sodipodi:docname="github.svg">
  <defs
     id="defs3324" />
  <sodipodi:namedview
     id="base"
     pagecolor="#ffffff"
     bordercolor="#666666"
     borderopacity="1.0"
     inkscape:pageopacity="0.0"
     inkscape:pageshadow="2"
     inkscape:zoom="18.65625"
     inkscape:cx="16"
     inkscape:cy="16"
     inkscape:document-units="px"
     inkscape:current-layer="layer1"
     showgrid="false"
     inkscape:window-width="1301"
     inkscape:window-height="744"
     inkscape:window-x="65"
     inkscape:window-y="24"
     inkscape:window-maximized="1"
     inkscape:snap-to-guides="false"
     inkscape:snap-bbox="true"
     inkscape:bbox-nodes="true"
     inkscape:snap-bbox-edge-midpoints="true"
     inkscape:snap-bbox-midpoints="true"
     inkscape:snap-center="true"
     inkscape:snap-page="true"
     inkscape:object-paths="true"
     inkscape:snap-intersection-paths="true"
     inkscape:object-nodes="true"
     inkscape:snap-smooth-nodes="true"
     borderlayer="false"
     fit-margin-top="0"
     fit-margin-left="0"
     fit-margin-right="0"
     fit-margin-bottom="0" />
  <metadata
     id="metadata3327">
    <rdf:RDF>
      <cc:Work
         rdf:about="">
        <dc:format>image/svg+xml</dc:format>
        <dc:type
           rdf:resource="http://purl.org/dc/dcmitype/StillImage" />
      </cc:Work>
    </rdf:RDF>
  </metadata>
  <g
     inkscape:label="Camada 1"
     inkscape:groupmode="layer"
     id="layer1"
     transform="translate(-324.94762,-541.2819)">
    <g
       id="g4214"
       transform="matrix(0.33969692,0,0,0.33969692,214.56392,378.53981)">
      <g
         id="g4216">
        <g
           id="g4218">
          <g
             id="g4220">
            <path
               inkscape:connector-curvature="0"
               id="path4222"
               style="fill:#1a1817;fill-opacity:1;fill-rule:nonzero;stroke:none"
               d="m 324.94762,573.2819 94.19925,0 0,-94.20162 -94.19925,0 0,94.20162 z" />
            <path
               inkscape:connector-curvature="0"
               id="path4224"
               style="fill:#ffffff;fill-opacity:1;fill-rule:nonzero;stroke:none"
               d="m 372.04762,494.27065 c -18.0725,0 -32.7225,14.64875 -32.7225,32.7275 0,14.45 9.3725,26.71375 22.3775,31.045 1.63875,0.2975 2.235,-0.71625 2.235,-1.58 0,-0.77625 -0.025,-2.835 -0.045,-5.56625 -9.10125,1.9775 -11.02,-4.385 -11.02,-4.385 -1.49,-3.77875 -3.63625,-4.7825 -3.63625,-4.7825 -2.96875,-2.03375 0.2275,-1.9925 0.2275,-1.9925 3.28625,0.2325 5.01375,3.37125 5.01375,3.37125 2.91625,5.0025 7.6575,3.5525 9.52375,2.7175 0.29375,-2.11625 1.13875,-3.5525 2.07375,-4.3725 -7.26625,-0.8225 -14.905,-3.6375 -14.905,-16.17375 0,-3.5675 1.2775,-6.4925 3.36625,-8.7775 -0.335,-0.83 -1.45625,-4.155 0.32375,-8.66125 0,0 2.74375,-0.88 8.9975,3.35625 2.60875,-0.7275 5.4125,-1.09125 8.19125,-1.10375 2.78,0.0125 5.58,0.37625 8.19,1.10375 6.25125,-4.23625 8.99625,-3.35625 8.99625,-3.35625 1.78125,4.50625 0.66,7.83125 0.32125,8.66125 2.09375,2.285 3.365,5.21 3.365,8.7775 0,12.5725 -7.65375,15.33875 -14.94375,16.15 1.17375,1.01 2.22375,3.0025 2.22375,6.05625 0,4.375 -0.04,7.90375 -0.04,8.9775 0,0.87375 0.59125,1.89 2.25125,1.57 12.98875,-4.33125 22.35625,-16.59 22.35625,-31.035 0,-18.07875 -14.64625,-32.7275 -32.72125,-32.7275" />
          </g>
        </g>
      </g>
    </g>
    <g
       id="g4191"
       transform="matrix(0.33969692,0,0,0.33969692,214.56392,378.53981)">
      <g
         id="g4185">
        <g
           id="g4180">
          <g
             id="g4176">
            <path
               inkscape:connector-curvature="0"
               id="path3162"
               style="fill:#1a1817;fill-opacity:1;fill-rule:nonzero;stroke:none"
               d="m 324.94762,573.2819 94.19925,0 0,-94.20162 -94.19925,0 0,94.20162 z" />
            <path
               inkscape:connector-curvature="0"
               id="path3164"
               style="fill:#ffffff;fill-opacity:1;fill-rule:nonzero;stroke:none"
               d="m 372.04762,494.27065 c -18.0725,0 -32.7225,14.64875 -32.7225,32.7275 0,14.45 9.3725,26.71375 22.3775,31.045 1.63875,0.2975 2.235,-0.71625 2.235,-1.58 0,-0.77625 -0.025,-2.835 -0.045,-5.56625 -9.10125,1.9775 -11.02,-4.385 -11.02,-4.385 -1.49,-3.77875 -3.63625,-4.7825 -3.63625,-4.7825 -2.96875,-2.03375 0.2275,-1.9925 0.2275,-1.9925 3.28625,0.2325 5.01375,3.37125 5.01375,3.37125 2.91625,5.0025 7.6575,3.5525 9.52375,2.7175 0.29375,-2.11625 1.13875,-3.5525 2.07375,-4.3725 -7.26625,-0.8225 -14.905,-3.6375 -14.905,-16.17375 0,-3.5675 1.2775,-6.4925 3.36625,-8.7775 -0.335,-0.83 -1.45625,-4.155 0.32375,-8.66125 0,0 2.74375,-0.88 8.9975,3.35625 2.60875,-0.7275 5.4125,-1.09125 8.19125,-1.10375 2.78,0.0125 5.58,0.37625 8.19,1.10375 6.25125,-4.23625 8.99625,-3.35625 8.99625,-3.35625 1.78125,4.50625 0.66,7.83125 0.32125,8.66125 2.09375,2.285 3.365,5.21 3.365,8.7775 0,12.5725 -7.65375,15.33875 -14.94375,16.15 1.17375,1.01 2.22375,3.0025 2.22375,6.05625 0,4.375 -0.04,7.90375 -0.04,8.9775 0,0.87375 0.59125,1.89 2.25125,1.57 12.98875,-4.33125 22.35625,-16.59 22.35625,-31.035 0,-18.07875 -14.64625,-32.7275 -32.72125,-32.7275" />
          </g>
        </g>
      </g>
    </g>
    <use
       x="0"
       y="0"
       xlink:href="#g4191"
       id="use4198"
       width="744.09448"
       height="1052.3622" />
    <g
       id="use4200"
       transform="matrix(0.33969692,0,0,0.33969692,214.56392,378.53981)">
      <g
         id="g4204">
        <g
           id="g4206">
          <g
             id="g4208">
            <path
               d="m 324.94762,573.2819 94.19925,0 0,-94.20162 -94.19925,0 0,94.20162 z"
               style="fill:#1a1817;fill-opacity:1;fill-rule:nonzero;stroke:none"
               id="path4210"
               inkscape:connector-curvature="0" />
            <path
               d="m 372.04762,494.27065 c -18.0725,0 -32.7225,14.64875 -32.7225,32.7275 0,14.45 9.3725,26.71375 22.3775,31.045 1.63875,0.2975 2.235,-0.71625 2.235,-1.58 0,-0.77625 -0.025,-2.835 -0.045,-5.56625 -9.10125,1.9775 -11.02,-4.385 -11.02,-4.385 -1.49,-3.77875 -3.63625,-4.7825 -3.63625,-4.7825 -2.96875,-2.03375 0.2275,-1.9925 0.2275,-1.9925 3.28625,0.2325 5.01375,3.37125 5.01375,3.37125 2.91625,5.0025 7.6575,3.5525 9.52375,2.7175 0.29375,-2.11625 1.13875,-3.5525 2.07375,-4.3725 -7.26625,-0.8225 -14.905,-3.6375 -14.905,-16.17375 0,-3.5675 1.2775,-6.4925 3.36625,-8.7775 -0.335,-0.83 -1.45625,-4.155 0.32375,-8.66125 0,0 2.74375,-0.88 8.9975,3.35625 2.60875,-0.7275 5.4125,-1.09125 8.19125,-1.10375 2.78,0.0125 5.58,0.37625 8.19,1.10375 6.25125,-4.23625 8.99625,-3.35625 8.99625,-3.35625 1.78125,4.50625 0.66,7.83125 0.32125,8.66125 2.09375,2.285 3.365,5.21 3.365,8.7775 0,12.5725 -7.65375,15.33875 -14.94375,16.15 1.17375,1.01 2.22375,3.0025 2.22375,6.05625 0,4.375 -0.04,7.90375 -0.04,8.9775 0,0.87375 0.59125,1.89 2.25125,1.57 12.98875,-4.33125 22.35625,-16.59 22.35625,-31.035 0,-18.07875 -14.64625,-32.7275 -32.72125,-32.7275"
               style="fill:#ffffff;fill-opacity:1;fill-rule:nonzero;stroke:none"
               id="path4212"
               inkscape:connector-curvature="0" />
          </g>
        </g>
      </g>
    </g>
  </g>
</svg>
